<svg width="52" height="166" viewBox="0 0 52 166" fill="none" xmlns="http://www.w3.org/2000/svg">
<path d="M40.5 76.4994L40.1027 76.1958L40.5 76.4994ZM6.50007 165.499L7.28732 159.78L1.9404 161.958L6.50007 165.499ZM6.57972 1.99297C23.3083 -0.712812 38.07 9.42336 45.4739 24.4978C52.8727 39.5616 52.8737 59.481 40.1027 76.1958L40.8973 76.8029C53.9203 59.7584 53.9213 39.4282 46.3715 24.0569C38.827 8.69636 23.6916 -1.78781 6.42005 1.0058L6.57972 1.99297ZM40.1027 76.1958C36.1448 81.376 30.9519 86.5861 25.5963 92.1941C20.2524 97.7899 14.7626 103.766 10.2701 110.438C1.26547 123.811 -3.7294 139.979 4.33519 161.51L5.27165 161.159C-2.65745 139.99 2.23702 124.158 11.0996 110.997C15.5408 104.401 20.979 98.477 26.3195 92.8848C31.6484 87.3047 36.8963 82.0395 40.8973 76.8029L40.1027 76.1958Z" fill="#EAEAEA"/>
</svg>
