<svg width="98" height="373" viewBox="0 0 98 373" fill="none" xmlns="http://www.w3.org/2000/svg">
<path d="M43.9746 204L44.2984 203.619L43.9746 204ZM77.8071 373L78.6254 367.285L73.2668 369.434L77.8071 373ZM96.4939 0.610261C41.741 44.6126 11.0357 80.6815 2.7844 113.221C-5.49073 145.853 8.83952 174.783 43.6507 204.381L44.2984 203.619C9.61814 174.133 -4.38532 145.562 3.75372 113.466C11.9165 81.2764 42.3733 45.3874 97.1204 1.38974L96.4939 0.610261ZM43.6507 204.381C61.287 219.376 70.6393 233.266 75.1378 246.608C79.6367 259.951 79.2984 272.798 77.4642 285.746C73.8025 311.593 64.1056 337.969 75.6622 368.994L76.5993 368.645C65.1597 337.934 74.7582 311.977 78.4543 285.886C80.2989 272.865 80.6551 259.842 76.0853 246.288C71.5151 232.733 62.0356 218.7 44.2984 203.619L43.6507 204.381Z" fill="#EAEAEA"/>
</svg>
