<svg width="359" height="177" viewBox="0 0 359 177" fill="none" xmlns="http://www.w3.org/2000/svg">
<path d="M35.5 38L35.7434 38.4367L35.5 38ZM71 177L68.7241 171.694L65.2669 176.318L71 177ZM357.687 0.610261C303.106 44.474 242.583 42.649 185.629 35.3509C157.178 31.7053 129.569 26.6856 104.131 25.3597C78.678 24.0331 55.2951 26.3942 35.2566 37.5633L35.7434 38.4367C55.5417 27.4016 78.7023 25.0357 104.079 26.3583C129.469 27.6817 156.974 32.6874 185.502 36.3428C242.503 43.6469 303.394 45.526 358.313 1.38974L357.687 0.610261ZM35.2566 37.5633C20.2125 45.9485 10.357 55.4839 5.14613 65.9159C-0.0702484 76.359 -0.605942 87.6481 2.89307 99.4756C9.87814 123.087 32.9532 148.89 67.0882 174.7L67.6913 173.902C33.5879 148.116 10.7408 122.478 3.85199 99.1919C0.414041 87.5708 0.953452 76.5474 6.04073 66.3628C11.1335 56.1673 20.8102 46.7602 35.7434 38.4367L35.2566 37.5633Z" fill="#EAEAEA"/>
</svg>
