<svg width="124" height="216" viewBox="0 0 124 216" fill="none" xmlns="http://www.w3.org/2000/svg">
<path d="M115.5 61.0001L115.041 60.802L115.5 61.0001ZM93.5 215.5L91.0665 210.265L87.7491 214.99L93.5 215.5ZM1.22299 23.4476C25.2671 11.4671 62.8301 0.0697343 89.8236 2.09103C103.323 3.1019 114.035 7.45487 119.189 16.5995C124.349 25.7543 124.054 39.9076 115.041 60.802L115.959 61.1981C125.01 40.2157 125.456 25.6805 120.06 16.1085C114.659 6.52617 103.519 2.11374 89.8983 1.09382C62.6512 -0.946458 24.8996 10.533 0.777013 22.5525L1.22299 23.4476ZM115.041 60.802C109.65 73.2983 99.9883 85.1524 89.8168 96.9124C79.6663 108.648 69.0038 120.294 61.7276 132.311C54.4435 144.34 50.5041 156.817 53.8837 170.217C57.2592 183.6 67.9083 197.791 89.5302 213.324L90.1137 212.512C68.5782 197.041 58.1458 183.027 54.8533 169.972C51.5649 156.934 55.3709 144.739 62.583 132.829C69.8032 120.905 80.3879 109.343 90.5732 97.5666C100.737 85.8149 110.5 73.8543 115.959 61.1981L115.041 60.802Z" fill="#EAEAEA"/>
</svg>
