<svg width="19" height="17" viewBox="0 0 19 17" fill="currentColor" stroke="currentColor" stroke-width="1.5" xmlns="http://www.w3.org/2000/svg">
  <path d="M17.01 2.21747C16.0674 1.26449 14.8196 0.74363 13.4878 0.74363C12.156 0.74363 10.9044 1.26835 9.96185 2.22133L9.46959 2.71903L8.9697 2.21361C8.02715 1.26063 6.7717 0.732056 5.43992 0.732056C4.11196 0.732056 2.86032 1.25677 1.92159 2.20589C0.979045 3.15887 0.460072 4.42436 0.463888 5.77088C0.463888 7.11739 0.986677 8.37903 1.92922 9.33201L9.09563 16.5777C9.19484 16.678 9.3284 16.7321 9.45814 16.7321C9.58789 16.7321 9.72145 16.6819 9.82066 16.5816L17.0023 9.34744C17.9449 8.39446 18.4638 7.12897 18.4638 5.78245C18.4677 4.43594 17.9525 3.17044 17.01 2.21747Z"/>
</svg>
