<svg width="32" height="32" viewBox="0 0 32 32" fill="none" xmlns="http://www.w3.org/2000/svg">
<g clip-path="url(#clip0_20_7)">
<circle cx="16" cy="16" r="16" fill="#111827"/>
<path d="M12 8H15.984C17.344 8 18.336 8.32 18.96 8.96C19.584 9.584 19.896 10.552 19.896 11.864V12.536C19.896 13.4 19.752 14.104 19.464 14.648C19.192 15.192 18.768 15.584 18.192 15.824V15.872C19.504 16.32 20.16 17.488 20.16 19.376V20.816C20.16 22.112 19.816 23.104 19.128 23.792C18.456 24.464 17.464 24.8 16.152 24.8H12V8ZM15.672 14.84C16.2 14.84 16.592 14.704 16.848 14.432C17.12 14.16 17.256 13.704 17.256 13.064V12.128C17.256 11.52 17.144 11.08 16.92 10.808C16.712 10.536 16.376 10.4 15.912 10.4H14.64V14.84H15.672ZM16.152 22.4C16.616 22.4 16.96 22.28 17.184 22.04C17.408 21.784 17.52 21.352 17.52 20.744V19.28C17.52 18.512 17.384 17.984 17.112 17.696C16.856 17.392 16.424 17.24 15.816 17.24H14.64V22.4H16.152Z" fill="white"/>
</g>
<defs>
<clipPath id="clip0_20_7">
<rect width="32" height="32" fill="white"/>
</clipPath>
</defs>
</svg>
