<svg width="18" height="16" viewBox="0 0 18 16" fill="none" xmlns="http://www.w3.org/2000/svg">
<path d="M8.29474 2.69018L9.00572 3.40904L9.71671 2.69018L10.209 2.19247C10.9651 1.42794 11.9614 1.01157 13.0239 1.01157C14.0877 1.01157 15.0798 1.42491 15.8351 2.18862C16.5903 2.95219 17.0031 3.96322 17 5.04756V5.0504C17 6.13466 16.5841 7.14697 15.8278 7.91182C15.8277 7.91194 15.8276 7.91206 15.8275 7.91218L8.99684 14.7927L2.17634 7.89675C1.41788 7.12989 1.00002 6.1205 1.00002 5.03882L1.00002 5.03599C0.996949 3.9536 1.41213 2.942 2.16871 2.17704C2.92094 1.41649 3.91712 1 4.97605 1C6.03748 1 7.03786 1.4194 7.79484 2.18476L8.29474 2.69018Z" stroke="#8B5CF6" stroke-width="2"/>
</svg>
