<svg width="28" height="28" viewBox="0 0 28 28" fill="none" xmlns="http://www.w3.org/2000/svg">
<path fill-rule="evenodd" clip-rule="evenodd" d="M10.6699 5C10.1009 5 9.63965 5.46125 9.63965 6.03023V12.6899C9.63965 13.2589 10.1009 13.7201 10.6699 13.7201H17.3296C17.8985 13.7201 18.3598 13.2589 18.3598 12.6899V6.03023C18.3598 5.46125 17.8985 5 17.3296 5H10.6699ZM11.7829 7.48142L12.7017 10.6925H13.3633L13.9732 8.59307H13.9983L14.6098 10.6925H15.2715L16.1903 7.48142H15.4487L14.9171 9.71727H14.8889L14.3041 7.48142H13.6691L13.0827 9.71257H13.056L12.5245 7.48142H11.7829Z" fill="#8B5CF6"/>
<path fill-rule="evenodd" clip-rule="evenodd" d="M1.03023 14.4561C0.461249 14.4561 0 14.9173 0 15.4863V22.146C0 22.7149 0.461248 23.1762 1.03023 23.1762H7.68991C8.25889 23.1762 8.72014 22.7149 8.72014 22.146V15.4863C8.72014 14.9173 8.25889 14.4561 7.68992 14.4561H1.03023ZM2.82762 20.1486H3.55514L3.79334 19.4164H4.95274L5.19048 20.1486H5.91799L4.81104 16.9375H3.93614L2.82762 20.1486ZM4.78067 18.8864L4.38613 17.6713H4.36105L3.96574 18.8864H4.78067Z" fill="#8B5CF6"/>
<path fill-rule="evenodd" clip-rule="evenodd" d="M10.6699 14.4561C10.1009 14.4561 9.63965 14.9173 9.63965 15.4863V22.146C9.63965 22.7149 10.1009 23.1762 10.6699 23.1762H17.3296C17.8985 23.1762 18.3598 22.7149 18.3598 22.146V15.4863C18.3598 14.9173 17.8985 14.4561 17.3296 14.4561H10.6699ZM14.4057 17.5662C14.5008 17.6363 14.5547 17.7345 14.5672 17.861H15.2179C15.2148 17.6697 15.1636 17.5014 15.0642 17.3561C14.9649 17.2109 14.8259 17.0974 14.6472 17.0159C14.4695 16.9344 14.2615 16.8936 14.0231 16.8936C13.789 16.8936 13.58 16.9344 13.396 17.0159C13.212 17.0974 13.0672 17.2109 12.9617 17.3561C12.8571 17.5014 12.8054 17.6713 12.8064 17.8657C12.8054 18.103 12.8833 18.2917 13.0401 18.4317C13.1969 18.5718 13.4106 18.6748 13.6813 18.7406L14.031 18.8284C14.1481 18.8566 14.2468 18.888 14.3273 18.9225C14.4089 18.957 14.4705 18.9988 14.5123 19.0479C14.5552 19.0971 14.5766 19.1577 14.5766 19.2298C14.5766 19.3072 14.5531 19.3756 14.5061 19.4352C14.459 19.4948 14.3927 19.5413 14.3069 19.5748C14.2223 19.6082 14.1225 19.6249 14.0075 19.6249C13.8904 19.6249 13.7853 19.6072 13.6923 19.5716C13.6003 19.535 13.5266 19.4812 13.4712 19.4101C13.4169 19.338 13.3861 19.2481 13.3787 19.1404H12.7218C12.727 19.3714 12.7829 19.5653 12.8895 19.7221C12.9972 19.8779 13.1467 19.9955 13.338 20.0749C13.5303 20.1544 13.7561 20.1941 14.0153 20.1941C14.2766 20.1941 14.4998 20.1549 14.6848 20.0765C14.8709 19.997 15.013 19.8857 15.1113 19.7425C15.2106 19.5983 15.2608 19.4279 15.2618 19.2314C15.2608 19.0976 15.2362 18.9789 15.1881 18.8755C15.1411 18.772 15.0747 18.6821 14.989 18.6058C14.9033 18.5295 14.8019 18.4652 14.6848 18.4129C14.5677 18.3607 14.4392 18.3188 14.2991 18.2875L14.0106 18.2185C13.9406 18.2028 13.8747 18.184 13.813 18.1621C13.7514 18.1391 13.697 18.1124 13.65 18.0821C13.6029 18.0507 13.5658 18.0136 13.5387 17.9708C13.5125 17.9279 13.5005 17.8777 13.5026 17.8203C13.5026 17.7513 13.5225 17.6896 13.5622 17.6352C13.6029 17.5809 13.6615 17.5385 13.7378 17.5082C13.8141 17.4769 13.9076 17.4612 14.0184 17.4612C14.1815 17.4612 14.3106 17.4962 14.4057 17.5662Z" fill="#8B5CF6"/>
<path fill-rule="evenodd" clip-rule="evenodd" d="M20.31 14.4561C19.741 14.4561 19.2798 14.9173 19.2798 15.4863V22.146C19.2798 22.7149 19.741 23.1762 20.31 23.1762H26.9697C27.5387 23.1762 27.9999 22.7149 27.9999 22.146V15.4863C27.9999 14.9173 27.5387 14.4561 26.9697 14.4561H20.31ZM22.3188 20.1486H23.4571C23.7832 20.1486 24.0634 20.0843 24.2975 19.9557C24.5327 19.8272 24.713 19.6427 24.8385 19.4023C24.9649 19.1618 25.0282 18.8744 25.0282 18.5399C25.0282 18.2065 24.9649 17.9201 24.8385 17.6807C24.713 17.4413 24.5338 17.2579 24.3007 17.1303C24.0676 17.0018 23.7895 16.9375 23.4665 16.9375H22.3188V20.1486ZM23.4289 19.5669H22.9977V17.5192H23.4305C23.6312 17.5192 23.8 17.5547 23.9369 17.6258C24.0738 17.6969 24.1768 17.8077 24.2458 17.9582C24.3158 18.1087 24.3508 18.3026 24.3508 18.5399C24.3508 18.7793 24.3158 18.9747 24.2458 19.1263C24.1768 19.2768 24.0733 19.3882 23.9353 19.4603C23.7984 19.5314 23.6296 19.5669 23.4289 19.5669Z" fill="#8B5CF6"/>
</svg>
