<svg width="143" height="119" viewBox="0 0 143 119" fill="none" xmlns="http://www.w3.org/2000/svg">
<rect x="13" width="116" height="119" fill="#3B82F6"/>
<path d="M106.468 0H133.829V52.5693L142.281 61.3556L133.829 70.142V118.839H106.468V109.159H123.801V67.0147L129.245 61.3556L123.801 55.6966V9.6799H106.468V0Z" fill="white"/>
<path d="M8.45188 52.5693V0H35.813V9.6799H18.4795V55.6966L13.0359 61.3556L18.4795 67.0147V109.159H35.813V118.839H8.45188V70.142L0 61.3556L8.45188 52.5693Z" fill="white"/>
<path d="M68.7701 49.9052C72.1035 49.9052 75.1531 50.4228 77.9191 51.4578C80.7559 52.4189 82.7063 53.6757 83.7701 55.2282L84.302 56.0045V40.0356H52.9191V32.2729H92.2808V87.7204H84.302V82.5084L83.7701 83.0628C82.068 84.8372 79.9049 86.3158 77.2808 87.4986C74.6566 88.6815 71.9971 89.273 69.302 89.273C64.9758 89.273 61.146 88.4228 57.8127 86.7224C54.5503 85.022 51.9616 82.6562 50.0467 79.6251C48.2027 76.594 47.2808 73.1193 47.2808 69.201C47.2808 65.4305 48.1673 62.1037 49.9403 59.2204C51.7843 56.2632 54.3375 53.9714 57.5999 52.3449C60.8623 50.7185 64.5857 49.9052 68.7701 49.9052ZM55.2595 69.201C55.2595 72.8235 56.5715 75.7807 59.1957 78.0726C61.8198 80.3644 65.1886 81.5103 69.302 81.5103C73.6992 81.5103 77.2808 80.3644 80.0467 78.0726C82.8836 75.7807 84.302 72.8235 84.302 69.201C84.302 65.8002 82.8481 63.0278 79.9403 60.8838C77.1035 58.7399 73.3801 57.6679 68.7701 57.6679C64.7985 57.6679 61.5361 58.7399 58.9829 60.8838C56.5006 63.0278 55.2595 65.8002 55.2595 69.201Z" fill="white"/>
</svg>
