<svg width="160" height="28" viewBox="0 0 160 28" fill="none" xmlns="http://www.w3.org/2000/svg">
<path d="M147.588 25.6525V23.5129H159.462V25.6525H147.588Z" fill="#3B82F6"/>
<path d="M141.394 22.9205H143.99V25.2246H140.951C138.966 25.2246 137.447 24.8296 136.391 24.0396C135.336 23.2277 134.808 21.7354 134.808 19.5629V11.6958H129.647V9.39162H134.808V4.25659H137.183V9.39162H143.927V11.6958H137.183V19.2338C137.183 20.2213 137.299 20.9784 137.531 21.505C137.763 22.0317 138.185 22.4048 138.798 22.6242C139.41 22.8217 140.275 22.9205 141.394 22.9205Z" fill="#EAEAEA"/>
<path d="M114.46 16.8308C114.46 15.0972 114.777 13.572 115.41 12.2554C116.065 10.9387 116.962 9.9073 118.102 9.16118C119.242 8.39312 120.55 8.00909 122.028 8.00909C123.485 8.00909 124.772 8.39312 125.891 9.16118C127.01 9.9073 127.886 10.9387 128.519 12.2554C129.152 13.572 129.469 15.0972 129.469 16.8308C129.469 18.5425 129.152 20.0676 128.519 21.4063C127.907 22.7229 127.052 23.7653 125.954 24.5334C124.857 25.2795 123.59 25.6525 122.155 25.6525C120.635 25.6525 119.294 25.2795 118.133 24.5334C116.994 23.7653 116.096 22.7229 115.442 21.4063C114.788 20.0676 114.46 18.5425 114.46 16.8308ZM122.155 23.3484C123.126 23.3484 123.981 23.074 124.719 22.5254C125.458 21.9549 126.039 21.1868 126.461 20.2213C126.883 19.2337 127.094 18.1036 127.094 16.8308C127.094 15.558 126.873 14.4389 126.429 13.4733C126.007 12.4858 125.416 11.7177 124.656 11.1691C123.896 10.5986 123.02 10.3133 122.028 10.3133C120.994 10.3133 120.075 10.5986 119.273 11.1691C118.492 11.7177 117.88 12.4858 117.437 13.4733C117.015 14.4389 116.814 15.558 116.835 16.8308C116.856 18.1036 117.089 19.2337 117.532 20.2213C117.996 21.1868 118.63 21.9549 119.432 22.5254C120.234 23.074 121.141 23.3484 122.155 23.3484Z" fill="#EAEAEA"/>
<path d="M114.283 25.2246H98.356V22.9204H104.847V3.59825H99.9075V1.29407H107.222V22.9204H114.283V25.2246Z" fill="#EAEAEA"/>
<path d="M82.8215 16.8308C82.8215 15.0972 83.1382 13.572 83.7714 12.2554C84.4258 10.9387 85.323 9.9073 86.4629 9.16118C87.6028 8.39312 88.9115 8.00909 90.3892 8.00909C91.8457 8.00909 93.1334 8.39312 94.2521 9.16118C95.3709 9.9073 96.247 10.9387 96.8802 12.2554C97.5135 13.572 97.8301 15.0972 97.8301 16.8308C97.8301 18.5425 97.5135 20.0676 96.8802 21.4063C96.2681 22.7229 95.4131 23.7653 94.3155 24.5334C93.2178 25.2795 91.9512 25.6525 90.5158 25.6525C88.996 25.6525 87.6555 25.2795 86.4945 24.5334C85.3546 23.7653 84.4575 22.7229 83.8031 21.4063C83.1487 20.0676 82.8215 18.5425 82.8215 16.8308ZM90.5158 23.3484C91.4868 23.3484 92.3418 23.074 93.0806 22.5254C93.8194 21.9549 94.3999 21.1868 94.8221 20.2213C95.2443 19.2337 95.4554 18.1036 95.4554 16.8308C95.4554 15.558 95.2337 14.4389 94.7904 13.4733C94.3682 12.4858 93.7772 11.7177 93.0173 11.1691C92.2573 10.5986 91.3813 10.3133 90.3892 10.3133C89.3548 10.3133 88.4366 10.5986 87.6344 11.1691C86.8534 11.7177 86.2412 12.4858 85.7979 13.4733C85.3757 14.4389 85.1752 15.558 85.1963 16.8308C85.2174 18.1036 85.4496 19.2337 85.8929 20.2213C86.3573 21.1868 86.9906 21.9549 87.7927 22.5254C88.5949 23.074 89.5026 23.3484 90.5158 23.3484Z" fill="#EAEAEA"/>
<path d="M78.1159 22.9205H80.7123V25.2246H77.6726C75.6883 25.2246 74.1685 24.8296 73.113 24.0396C72.0576 23.2277 71.5298 21.7354 71.5298 19.5629V11.6958H66.3687V9.39162H71.5298V4.25659H73.9046V9.39162H80.649V11.6958H73.9046V19.2338C73.9046 20.2213 74.0207 20.9784 74.2529 21.505C74.4851 22.0317 74.9073 22.4048 75.5195 22.6242C76.1316 22.8217 76.9971 22.9205 78.1159 22.9205Z" fill="#EAEAEA"/>
<path d="M52.0691 25.2245V8.76611H64.6396V11.2349H54.4439V25.2245H52.0691Z" fill="#EAEAEA"/>
<path d="M41.2524 0.86615H47.3002V12.4858L49.1684 14.4279L47.3002 16.37V27.1338H41.2524V24.9942H45.0838V15.6787L46.287 14.4279L45.0838 13.1771V3.00575H41.2524V0.86615Z" fill="#3B82F6"/>
<path d="M19.5875 12.4858V0.86615H25.6353V3.00575H21.804V13.1771L20.6008 14.4279L21.804 15.6787V24.9942H25.6353V27.1338H19.5875V16.37L17.7194 14.4279L19.5875 12.4858Z" fill="#3B82F6"/>
<path d="M10.9873 12.9795C12.2961 13.2209 13.3304 13.8793 14.0904 14.9546C14.8503 16.0079 15.2303 17.3136 15.2303 18.8717C15.2303 20.8247 14.5759 22.3718 13.2671 23.5129C11.9583 24.6541 10.1746 25.2246 7.91593 25.2246H0V1.85364H7.25099C8.62309 1.85364 9.82631 2.106 10.8607 2.61073C11.895 3.11545 12.7077 3.81768 13.2988 4.71741C13.8898 5.61713 14.1854 6.6595 14.1854 7.84451C14.1854 9.11729 13.8793 10.2365 13.2671 11.202C12.676 12.1676 11.9161 12.7601 10.9873 12.9795ZM2.37478 4.22365V11.8604H7.69429C8.8764 11.8604 9.84742 11.5312 10.6074 10.8729C11.3673 10.1926 11.7472 9.3148 11.7472 8.23951C11.7472 7.0545 11.3673 6.08894 10.6074 5.34283C9.84742 4.59671 8.8764 4.22365 7.69429 4.22365H2.37478ZM2.37478 14.1975V22.9204H8.39089C9.76298 22.9204 10.8501 22.5364 11.6523 21.7683C12.4544 20.9783 12.8555 19.914 12.8555 18.5754C12.8555 17.2148 12.4227 16.1505 11.5573 15.3825C10.6918 14.5925 9.50967 14.1975 8.01093 14.1975H2.37478Z" fill="#EAEAEA"/>
<path d="M32.7754 12.0022C33.5162 12.0022 34.1939 12.1154 34.8085 12.3419C35.4389 12.5523 35.8723 12.8273 36.1087 13.1671L36.227 13.337V9.84211H29.253V8.14319H38V20.2783H36.227V19.1376L36.1087 19.259C35.7305 19.6473 35.2498 19.9709 34.6667 20.2298C34.0835 20.4887 33.4925 20.6181 32.8936 20.6181C31.9322 20.6181 31.0812 20.432 30.3404 20.0599C29.6154 19.6877 29.0402 19.17 28.6147 18.5066C28.2049 17.8432 28 17.0827 28 16.2252C28 15.4 28.197 14.6719 28.591 14.0409C29.0008 13.3937 29.5682 12.8921 30.2931 12.5361C31.0181 12.1801 31.8455 12.0022 32.7754 12.0022ZM29.773 16.2252C29.773 17.018 30.0646 17.6652 30.6478 18.1668C31.2309 18.6684 31.9795 18.9192 32.8936 18.9192C33.8708 18.9192 34.6667 18.6684 35.2813 18.1668C35.9117 17.6652 36.227 17.018 36.227 16.2252C36.227 15.4809 35.9039 14.8741 35.2577 14.4049C34.6273 13.9357 33.7998 13.7011 32.7754 13.7011C31.8928 13.7011 31.1678 13.9357 30.6005 14.4049C30.0489 14.8741 29.773 15.4809 29.773 16.2252Z" fill="white"/>
</svg>
