<svg width="18" height="18" viewBox="0 0 18 18" fill="none" xmlns="http://www.w3.org/2000/svg">
<g clip-path="url(#clip0_334_605)">
<path d="M16.3465 9.0224C16.9275 9.10502 17.3315 9.64295 17.2489 10.2239C16.9963 12.0004 16.1879 13.6514 14.9397 14.9404C13.6914 16.2293 12.0672 17.0903 10.2997 17.3998C8.53228 17.7093 6.7122 17.4515 5.1002 16.6633C4.34268 16.2931 3.64937 15.8145 3.0399 15.2467L2.1473 16.1393C1.47796 16.8087 0.333496 16.3346 0.333496 15.388V11.1521H4.5694C5.51598 11.1521 5.99003 12.2966 5.32069 12.966L4.54376 13.7429C4.98731 14.1464 5.48825 14.4878 6.03354 14.7544C7.24255 15.3454 8.6076 15.5387 9.93319 15.3066C11.2588 15.0745 12.4769 14.4288 13.4131 13.462C14.3494 12.4953 14.9556 11.2571 15.1451 9.92472C15.2277 9.34376 15.7657 8.93978 16.3465 9.0224ZM12.5668 1.39095C13.3256 1.76195 14.02 2.24149 14.6303 2.81053L15.5197 1.92109C16.1891 1.25174 17.3335 1.7258 17.3335 2.67239V6.90217H13.1037C12.1571 6.90217 11.683 5.75771 12.3524 5.08838L13.1264 4.31435C12.6821 3.90959 12.1801 3.56724 11.6335 3.3C10.4244 2.70892 9.05939 2.51559 7.7338 2.74772C6.4082 2.97985 5.19007 3.62553 4.25387 4.59228C3.31765 5.55901 2.71139 6.79724 2.52192 8.1296C2.4393 8.71056 1.90136 9.11454 1.32041 9.03192C0.739451 8.9493 0.335468 8.41137 0.418087 7.8304C0.670723 6.05393 1.47906 4.40297 2.72734 3.11398C3.97562 1.82498 5.5998 0.964079 7.36726 0.654572C9.13472 0.345065 10.9548 0.60283 12.5668 1.39095Z" fill="#8B5CF6"/>
</g>
<defs>
<clipPath id="clip0_334_605">
<rect width="17" height="17" fill="white" transform="translate(0.333496 0.527161)"/>
</clipPath>
</defs>
</svg>
