<svg width="29" height="11" viewBox="0 0 29 11" fill="none" xmlns="http://www.w3.org/2000/svg">
<path fill-rule="evenodd" clip-rule="evenodd" d="M1 0.45216C0.447715 0.45216 0 0.899876 0 1.45216V9.60216C0 10.1544 0.447716 10.6022 1 10.6022H28C28.5523 10.6022 29 10.1544 29 9.60216V1.45216C29 0.899875 28.5523 0.45216 28 0.45216H1ZM8.05407 5.06381L8.88503 5.01267C8.84526 4.71154 8.70605 4.47361 8.46742 4.29889C8.2302 4.12418 7.90492 4.03682 7.49157 4.03682C7.21174 4.03682 6.96742 4.07801 6.75861 4.1604C6.55123 4.24279 6.39 4.35997 6.27495 4.51196C6.16131 4.66395 6.10449 4.84506 6.10449 5.05529C6.10449 5.2996 6.18191 5.5006 6.33674 5.65827C6.49299 5.81594 6.73091 5.92674 7.05052 5.99066L7.61728 6.10358C7.75932 6.13199 7.86444 6.17318 7.93262 6.22716C8.0008 6.27972 8.0356 6.34719 8.03702 6.42958C8.0356 6.52759 7.98588 6.60784 7.88787 6.67034C7.79128 6.73142 7.66344 6.76196 7.50435 6.76196C7.34242 6.76196 7.20961 6.72787 7.10591 6.65969C7.00222 6.59009 6.93688 6.48924 6.90989 6.35713L6.01713 6.40401C6.06117 6.71651 6.21103 6.96367 6.46671 7.14549C6.72381 7.32588 7.06898 7.41608 7.50222 7.41608C7.78631 7.41608 8.03702 7.37134 8.25435 7.28185C8.4731 7.19094 8.64498 7.06452 8.76998 6.90259C8.8964 6.74066 8.95961 6.55245 8.95961 6.33796C8.95961 6.10216 8.88148 5.91182 8.72523 5.76693C8.56898 5.62205 8.33177 5.51693 8.01358 5.45159L7.42125 5.33227C7.26927 5.2996 7.16202 5.25628 7.09952 5.2023C7.03702 5.14833 7.00577 5.08227 7.00577 5.00415C7.00577 4.90614 7.05407 4.82801 7.15066 4.76977C7.24725 4.71012 7.36586 4.68029 7.50648 4.68029C7.61159 4.68029 7.70179 4.69804 7.77708 4.73355C7.85378 4.76764 7.91557 4.81381 7.96245 4.87205C8.00932 4.92887 8.03986 4.99279 8.05407 5.06381ZM9.53116 4.07943V8.57943H10.4388V6.82801H10.4665C10.5077 6.91892 10.5674 7.00912 10.6455 7.09861C10.7236 7.18668 10.8238 7.25983 10.9459 7.31807C11.0695 7.37631 11.2194 7.40543 11.3955 7.40543C11.6441 7.40543 11.8685 7.34151 12.0688 7.21367C12.2705 7.08441 12.4296 6.89477 12.5461 6.64477C12.664 6.39335 12.7229 6.08512 12.7229 5.72006C12.7229 5.34506 12.6626 5.03327 12.5418 4.78469C12.4211 4.53469 12.2599 4.3479 12.0582 4.22432C11.8564 4.09932 11.6363 4.03682 11.3976 4.03682C11.2144 4.03682 11.061 4.06807 10.9374 4.13057C10.8153 4.19165 10.7158 4.26835 10.6391 4.36068C10.5638 4.45159 10.5063 4.54108 10.4665 4.62915H10.426V4.07943H9.53116ZM10.5006 6.22503C10.4466 6.08014 10.4197 5.9104 10.4197 5.7158C10.4197 5.5212 10.4466 5.35216 10.5006 5.2087C10.5546 5.06523 10.632 4.95443 10.7329 4.87631C10.8351 4.79818 10.9601 4.75912 11.1079 4.75912C11.257 4.75912 11.3827 4.7996 11.485 4.88057C11.5873 4.96154 11.6647 5.07375 11.7172 5.21722C11.7698 5.36068 11.7961 5.52688 11.7961 5.7158C11.7961 5.90614 11.7691 6.07446 11.7151 6.22077C11.6626 6.36566 11.5851 6.47929 11.4829 6.56168C11.3806 6.64264 11.2556 6.68313 11.1079 6.68313C10.9616 6.68313 10.8373 6.64335 10.735 6.56381C10.6327 6.48284 10.5546 6.36992 10.5006 6.22503ZM13.703 7.30529C13.8664 7.37773 14.0525 7.41395 14.2613 7.41395C14.4232 7.41395 14.566 7.39264 14.6895 7.35003C14.8131 7.306 14.9189 7.24563 15.007 7.16892C15.0951 7.0908 15.1654 7.0006 15.218 6.89833H15.2435V7.35216H16.1043V5.14477C16.1043 4.95017 16.0667 4.78327 15.9914 4.64406C15.9161 4.50344 15.8131 4.38838 15.6824 4.29889C15.5532 4.20941 15.4047 4.14335 15.2371 4.10074C15.0709 4.05813 14.8969 4.03682 14.7151 4.03682C14.4537 4.03682 14.2236 4.07659 14.0248 4.15614C13.8273 4.23426 13.6661 4.34648 13.5411 4.49279C13.4161 4.63767 13.3323 4.80955 13.2897 5.00841L14.1292 5.07659C14.1604 4.96864 14.2243 4.87915 14.3209 4.80813C14.4175 4.73568 14.5475 4.69946 14.7108 4.69946C14.8657 4.69946 14.985 4.73639 15.0688 4.81026C15.154 4.88412 15.1966 4.98852 15.1966 5.12347V5.13625C15.1966 5.20585 15.1704 5.25841 15.1178 5.29392C15.0653 5.32943 14.9807 5.35642 14.8643 5.37489C14.7478 5.39193 14.5944 5.4104 14.404 5.43029C14.2421 5.44591 14.0873 5.4729 13.9395 5.51125C13.7932 5.5496 13.6626 5.60642 13.5475 5.68171C13.4324 5.75699 13.3415 5.85642 13.2748 5.98C13.208 6.10358 13.1746 6.25628 13.1746 6.4381C13.1746 6.65401 13.2215 6.83441 13.3153 6.97929C13.4104 7.12276 13.5397 7.23142 13.703 7.30529ZM14.8749 6.7087C14.7726 6.76125 14.6547 6.78753 14.5212 6.78753C14.382 6.78753 14.267 6.75557 14.176 6.69165C14.0866 6.62631 14.0418 6.53185 14.0418 6.40827C14.0418 6.32304 14.0638 6.25202 14.1079 6.1952C14.1519 6.13696 14.2137 6.0908 14.2932 6.05671C14.3728 6.02262 14.4658 5.99776 14.5724 5.98213L14.7385 5.9587C14.7996 5.94875 14.8607 5.9381 14.9218 5.92674C14.9829 5.91395 15.0376 5.90046 15.0858 5.88625C15.1356 5.87063 15.1746 5.85358 15.203 5.83512V6.18242C15.203 6.29747 15.1739 6.40046 15.1157 6.49137C15.0574 6.58227 14.9772 6.65472 14.8749 6.7087ZM17.4221 7.20301C17.6636 7.34506 17.952 7.41608 18.2872 7.41608C18.5784 7.41608 18.8305 7.36281 19.0436 7.25628C19.2567 7.14975 19.4236 7.00202 19.5443 6.8131C19.6665 6.62276 19.7346 6.40259 19.7488 6.15259H18.8923C18.8753 6.26764 18.839 6.36637 18.7836 6.44875C18.7297 6.52972 18.6608 6.59151 18.577 6.63412C18.4946 6.67674 18.4015 6.69804 18.2979 6.69804C18.1572 6.69804 18.0344 6.65969 17.9292 6.58299C17.8241 6.50628 17.7425 6.39477 17.6842 6.24847C17.6274 6.10216 17.599 5.9246 17.599 5.7158C17.599 5.50983 17.6281 5.33441 17.6863 5.18952C17.7446 5.04463 17.8256 4.93455 17.9292 4.85926C18.0344 4.78256 18.1572 4.74421 18.2979 4.74421C18.464 4.74421 18.5983 4.79463 18.7006 4.89549C18.8042 4.99492 18.8682 5.12631 18.8923 5.28966H19.7488C19.7361 5.03682 19.6672 4.81665 19.5422 4.62915C19.4172 4.44165 19.2474 4.29605 19.0329 4.19236C18.8184 4.08867 18.5684 4.03682 18.2829 4.03682C17.952 4.03682 17.6665 4.10855 17.4264 4.25202C17.1863 4.39406 17.001 4.59222 16.8703 4.84648C16.741 5.09932 16.6764 5.39335 16.6764 5.72858C16.6764 6.05955 16.7403 6.35216 16.8682 6.60642C16.9974 6.86068 17.1821 7.05955 17.4221 7.20301ZM20.9521 7.21154C21.195 7.3479 21.4848 7.41608 21.8215 7.41608C22.0914 7.41608 22.3293 7.37489 22.5352 7.2925C22.7426 7.2087 22.9117 7.09222 23.0423 6.94307C23.1744 6.7925 23.2618 6.61637 23.3044 6.41466L22.4649 6.35926C22.4337 6.44165 22.3882 6.51125 22.3286 6.56807C22.2689 6.62489 22.1972 6.6675 22.1134 6.69591C22.0296 6.72432 21.9372 6.73852 21.8364 6.73852C21.6844 6.73852 21.553 6.70656 21.4422 6.64264C21.3314 6.57872 21.2455 6.48781 21.1844 6.36992C21.1247 6.25202 21.0949 6.1121 21.0949 5.95017V5.94804H23.3236V5.69875C23.3236 5.42034 23.2845 5.17745 23.2064 4.97006C23.1283 4.76125 23.0189 4.58796 22.8783 4.45017C22.7391 4.31239 22.5757 4.20941 22.3882 4.14122C22.2021 4.07162 22.0012 4.03682 21.7852 4.03682C21.4642 4.03682 21.1844 4.10784 20.9458 4.24989C20.7085 4.39193 20.5246 4.59009 20.3939 4.84435C20.2632 5.09861 20.1979 5.39406 20.1979 5.73071C20.1979 6.07588 20.2632 6.37489 20.3939 6.62773C20.5246 6.87915 20.7107 7.07375 20.9521 7.21154ZM21.0958 5.38554C21.1012 5.26802 21.1315 5.16078 21.1865 5.06381C21.2462 4.95727 21.3286 4.87276 21.4337 4.81026C21.5402 4.74634 21.6624 4.71438 21.8002 4.71438C21.9323 4.71438 22.048 4.7435 22.1475 4.80174C22.2483 4.85855 22.3271 4.93739 22.384 5.03824C22.4408 5.13909 22.4692 5.25486 22.4692 5.38554H21.0958Z" fill="#8B5CF6"/>
</svg>
