<?xml version="1.0" standalone="no"?>
<svg viewBox="0 0 200 200" xmlns="http://www.w3.org/2000/svg">
  <path fill="currentColor" d="M30.4,-58.9C39.4,-47.5,46.7,-39.3,52,-30.1C57.3,-20.8,60.5,-10.4,65.1,2.7C69.7,15.7,75.7,31.4,72.9,45.1C70.2,58.8,58.9,70.6,45.3,67.8C31.7,64.9,15.8,47.6,1.2,45.4C-13.3,43.3,-26.7,56.3,-31.9,54.3C-37.1,52.2,-34.1,35.1,-38.2,23.5C-42.4,12,-53.7,6,-61.7,-4.6C-69.8,-15.3,-74.5,-30.5,-66.3,-35C-58.1,-39.5,-36.8,-33.3,-23.6,-42.3C-10.4,-51.3,-5.2,-75.7,2.8,-80.4C10.7,-85.2,21.4,-70.4,30.4,-58.9Z" transform="translate(100 100)" />
</svg>
