<svg width="1689" height="1591" viewBox="0 0 1689 1591" fill="none" xmlns="http://www.w3.org/2000/svg">
<g opacity="0.21" filter="url(#filter0_f_35_50)">
<path fill-rule="evenodd" clip-rule="evenodd" d="M994.246 360.619C951.236 320.714 909.28 281.786 857.5 294.427C806.845 306.793 784.037 357.052 760.675 408.525C741.303 451.201 721.555 494.711 685.248 518.154C654.101 538.266 613.381 535.022 573.263 531.826C528.139 528.231 483.775 524.696 454.644 554.53C424.367 585.539 429.356 630.709 434.477 677.066C438.333 711.978 442.264 747.564 431.26 778.276C418.774 813.131 390.007 842.85 361.841 871.947C322.116 912.983 283.585 952.788 293.608 1004.03C304.73 1060.89 353.116 1069.76 406.174 1079.48C451.035 1087.7 499.236 1096.53 531.076 1135.5C558.464 1169.02 561.916 1206.93 565.655 1247.99C569.692 1292.32 574.063 1340.31 609.263 1390.39C661.366 1464.53 766.834 1494.5 857.5 1492.94C1023.13 1490.09 1152.13 1375.86 1275.02 1219C1397.92 1062.14 1418.98 921.674 1377.83 756.821C1327.34 554.53 1265.65 511.966 1075.7 422.835C1046.57 409.165 1020.21 384.714 994.246 360.619ZM645.702 381.43C645.702 427.001 617.77 463.944 583.311 463.944C548.855 463.944 520.923 427.001 520.923 381.43C520.923 335.859 548.855 298.916 583.311 298.916C617.77 298.916 645.702 335.859 645.702 381.43Z" fill="#3B82F6"/>
</g>
<defs>
<filter id="filter0_f_35_50" x="0.600006" y="0.600006" width="1687.8" height="1783.8" filterUnits="userSpaceOnUse" color-interpolation-filters="sRGB">
<feFlood flood-opacity="0" result="BackgroundImageFix"/>
<feBlend mode="normal" in="SourceGraphic" in2="BackgroundImageFix" result="shape"/>
<feGaussianBlur stdDeviation="145.7" result="effect1_foregroundBlur_35_50"/>
</filter>
</defs>
</svg>
