<svg viewBox="0 0 147 163.6" xmlns="http://www.w3.org/2000/svg">
  <path fill="currentColor" d="M108.1,32.6 
    C113,43.9 112.7,55.7 118.6,64.5 
    C124.6,73.3 136.7,78.9 141.9,87.6 
    C147,96.2 145.2,107.9 142.1,121.5 
    C139,135.2 134.7,151 124.6,157.3 
    C114.5,163.6 98.7,160.5 85.5,156 
    C72.3,151.5 61.7,145.6 54.9,137.4 
    C48.1,129.1 45.2,118.6 35.2,109.4 
    C25.2,100.3 8.1,92.4 4,82.3 
    C0,72.1 9,59.6 16.2,45.6 
    C23.4,31.5 28.8,15.8 39.6,7.9 
    C50.4,0 66.6,0 79.8,5.3 
    C93,10.6 103.1,21.3 108.1,32.6Z"/>
</svg>
