<svg viewBox="38.8 24.8 110.6 141.8" xmlns="http://www.w3.org/2000/svg">
  <path fill="currentColor" d="M21.7,-49.3C24.3,-36.1,19.9,-22.5,24.6,-14.3C29.2,-6,42.8,-3,46.1,1.9C49.4,6.8,42.3,13.5,34.3,16.1C26.4,18.6,17.6,16.9,11.7,21.5C5.9,26.1,2.9,36.9,-5.9,47C-14.6,57.1,-29.3,66.6,-39.3,64.4C-49.3,62.3,-54.7,48.5,-55.2,35.8C-55.7,23.1,-51.3,11.6,-52.7,-0.8C-54.1,-13.2,-61.2,-26.3,-55.9,-30.7C-50.6,-35.1,-32.9,-30.7,-21.5,-38.8C-10.1,-46.9,-5.1,-67.4,2.2,-71.3C9.5,-75.2,19.1,-62.4,21.7,-49.3Z" transform="translate(100 100)" />
</svg>
